<svg width="710" height="93" viewBox="0 0 710 93" fill="none" xmlns="http://www.w3.org/2000/svg" xmlns:xlink="http://www.w3.org/1999/xlink">
 <path d="M243.36 78.0186V91.8798H192.668V78.0186H209.598V13.8612H192.668V0H226.628V78.0186H243.36Z" fill="black">
 </path>
 <path d="M304.053 78.0186V91.8798H253.361V78.0186H270.192V13.8612H253.361V0H287.321V78.0186H304.053Z" fill="black">
 </path>
 <path d="M324.348 91.8799V38.4154H308.209V24.5542H324.348V19.1087C324.348 6.73268 330.783 0.0991211 344.051 0.0991211H363.159V13.6633H346.823C342.664 13.6633 340.981 15.4454 340.981 19.5048V24.4552H363.159V38.3164H341.179V91.7809H324.348V91.8799Z" fill="black">
 </path>
 <path d="M402.863 23.7617C382.368 23.7617 368.507 37.6229 368.507 58.2166C368.507 78.8104 382.368 92.6716 402.863 92.6716C423.358 92.6716 437.318 78.9094 437.318 58.2166C437.318 37.5239 423.457 23.7617 402.863 23.7617ZM402.863 78.6124C392.566 78.6124 385.834 70.0977 385.834 58.1176C385.834 46.1376 392.566 37.6229 402.863 37.6229C413.16 37.6229 419.992 46.1376 419.992 58.1176C419.992 70.1967 413.259 78.6124 402.863 78.6124Z" fill="black">
 </path>
 <path d="M494.248 24.5542H511.179V91.8799H494.644V83.6622C490.387 88.7117 484.446 92.672 475.041 92.672C461.378 92.672 449.001 85.6424 449.001 62.5734V24.5542H465.932V61.1873C465.932 72.3753 469.991 78.6128 479.298 78.6128C488.605 78.6128 494.248 71.7812 494.248 59.6032V24.5542Z" fill="black">
 </path>
 <path d="M652.957 0V32.5738C648.7 27.3263 642.066 23.663 632.957 23.663C615.235 23.663 601.572 37.2272 601.572 58.0189C601.572 78.8107 614.74 92.5729 632.66 92.5729C642.462 92.5729 649.096 87.9195 653.452 82.078V91.7808H669.987V0H652.957ZM636.027 78.6127C625.532 78.6127 618.799 70.197 618.799 58.1179C618.799 46.0389 625.532 37.6232 636.027 37.6232C646.522 37.6232 653.155 46.0389 653.155 58.217C653.155 70.296 646.423 78.6127 636.027 78.6127Z" fill="black">
 </path>
 <path d="M20.8908 91.8799L0 24.5542H19.4056L31.7817 72.9693L45.1478 24.5542H64.6525L78.0186 72.9693L90.3947 24.5542H109.8L88.6125 91.8799H67.9198L54.8507 43.2668L41.6825 91.8799H20.8908Z" fill="black">
 </path>
 <path d="M697.714 92.5729C703.948 92.5729 709.001 87.5196 709.001 81.286C709.001 75.0524 703.948 69.999 697.714 69.999C691.481 69.999 686.427 75.0524 686.427 81.286C686.427 87.5196 691.481 92.5729 697.714 92.5729Z" fill="#EA2C00">
 </path>
 <path d="M697.714 46.3361C703.948 46.3361 709.001 41.2828 709.001 35.0492C709.001 28.8156 703.948 23.7622 697.714 23.7622C691.481 23.7622 686.427 28.8156 686.427 35.0492C686.427 41.2828 691.481 46.3361 697.714 46.3361Z" fill="#EA2C00">
 </path>
 <path d="M182.672 62.0784C182.969 59.9992 183.167 57.524 183.167 55.9398C182.969 36.1381 169.702 23.6631 150.098 23.6631C130.494 23.6631 116.435 37.3262 116.435 58.217C116.435 79.1078 129.702 92.5729 151.286 92.5729C168.712 92.5729 180.097 82.1771 182.177 69.0089H165.444C163.761 75.7415 158.316 79.4048 150.593 79.4048C140.89 79.4048 134.455 72.9693 134.059 62.7714V61.9793H182.672V62.0784ZM150.098 36.6332C158.613 36.6332 164.454 41.3856 165.939 50.0983H134.554C135.742 41.7816 142.078 36.6332 150.098 36.6332Z" fill="black">
 </path>
 <path d="M544.645 91.88H527.715V24.5543H544.249V32.772C548.507 27.7225 554.447 23.7622 563.853 23.7622C577.516 23.7622 589.892 30.7918 589.892 53.8608V91.88H572.962V55.1479C572.962 43.9599 568.902 37.7224 559.596 37.7224C550.289 37.7224 544.645 44.554 544.645 56.732V91.88Z" fill="black">
 </path>
</svg>